<svg width="60" height="60" viewBox="0 0 60 60" fill="none" xmlns="http://www.w3.org/2000/svg">
<path d="M53.3333 6.66667H46.6667V0H13.3333V6.66667H6.66667C3 6.66667 0 9.66667 0 13.3333V16.6667C0 25.1667 6.4 32.1 14.6333 33.1333C15.6875 35.6312 17.334 37.8349 19.4305 39.5539C21.5271 41.273 24.0107 42.4557 26.6667 43V53.3333H13.3333V60H46.6667V53.3333H33.3333V43C35.9893 42.4557 38.4729 41.273 40.5695 39.5539C42.666 37.8349 44.3125 35.6312 45.3667 33.1333C53.6 32.1 60 25.1667 60 16.6667V13.3333C60 9.66667 57 6.66667 53.3333 6.66667ZM6.66667 16.6667V13.3333H13.3333V26.0667C9.46667 24.6667 6.66667 21 6.66667 16.6667ZM53.3333 16.6667C53.3333 21 50.5333 24.6667 46.6667 26.0667V13.3333H53.3333V16.6667Z" fill="#BC282C"/>
</svg>
