<svg width="65" height="60" viewBox="0 0 65 60" fill="none" xmlns="http://www.w3.org/2000/svg">
<path d="M40.995 23.3333C44.1 23.3333 46.62 25.9467 46.62 29.1667V44.9967C46.62 48.9758 45.0957 52.792 42.3826 55.6056C39.6694 58.4193 35.9895 60 32.1525 60C28.3155 60 24.6356 58.4193 21.9224 55.6056C19.2092 52.792 17.685 48.9758 17.685 44.9967V29.1667C17.685 25.9467 20.2018 23.3333 23.31 23.3333H40.995ZM16.4925 23.3333C15.3675 24.74 14.6443 26.5 14.4996 28.4333L14.4675 29.1667V44.9967C14.4675 47.82 15.0846 50.4933 16.1839 52.88C14.2788 53.4086 12.2819 53.4756 10.3477 53.076C8.41357 52.6765 6.59394 51.8209 5.02954 50.5756C3.46515 49.3302 2.19789 47.7284 1.32577 45.8941C0.453656 44.0597 3.9535e-05 42.0419 0 39.9967V29.1667C5.2729e-05 27.7027 0.530907 26.2923 1.48719 25.2154C2.44346 24.1385 3.75525 23.4738 5.16214 23.3533L5.625 23.3333H16.4925ZM47.8125 23.3333H58.6607C61.7657 23.3333 64.2857 25.9467 64.2857 29.1667V40C64.2861 42.0439 63.8335 44.0605 62.9627 45.8941C62.0919 47.7276 60.8262 49.329 59.2636 50.5746C57.7009 51.8201 55.8831 52.6764 53.9505 53.0773C52.0179 53.4782 50.0223 53.413 48.1179 52.8867C49.0821 50.7933 49.6736 48.4867 49.8054 46.0467L49.8343 44.9967V29.1667C49.8343 26.95 49.0757 24.9167 47.8093 23.3333H47.8125ZM32.1429 0C34.7003 0 37.153 1.05357 38.9614 2.92893C40.7698 4.8043 41.7857 7.34784 41.7857 10C41.7857 12.6522 40.7698 15.1957 38.9614 17.0711C37.153 18.9464 34.7003 20 32.1429 20C29.5854 20 27.1327 18.9464 25.3243 17.0711C23.5159 15.1957 22.5 12.6522 22.5 10C22.5 7.34784 23.5159 4.8043 25.3243 2.92893C27.1327 1.05357 29.5854 0 32.1429 0ZM53.0357 3.33333C55.1669 3.33333 57.2108 4.21131 58.7178 5.77411C60.2248 7.33691 61.0714 9.45653 61.0714 11.6667C61.0714 13.8768 60.2248 15.9964 58.7178 17.5592C57.2108 19.122 55.1669 20 53.0357 20C50.9045 20 48.8606 19.122 47.3536 17.5592C45.8466 15.9964 45 13.8768 45 11.6667C45 9.45653 45.8466 7.33691 47.3536 5.77411C48.8606 4.21131 50.9045 3.33333 53.0357 3.33333ZM11.25 3.33333C13.3812 3.33333 15.4251 4.21131 16.9321 5.77411C18.4391 7.33691 19.2857 9.45653 19.2857 11.6667C19.2857 13.8768 18.4391 15.9964 16.9321 17.5592C15.4251 19.122 13.3812 20 11.25 20C9.1188 20 7.07488 19.122 5.56789 17.5592C4.0609 15.9964 3.21429 13.8768 3.21429 11.6667C3.21429 9.45653 4.0609 7.33691 5.56789 5.77411C7.07488 4.21131 9.1188 3.33333 11.25 3.33333Z" fill="#BC282C"/>
</svg>
